

<svg xmlns="http://www.w3.org/2000/svg" viewBox="0 0 9 16" xmlns:xlink="http://www.w3.org/1999/xlink"
 >
    <symbol id="facebook"  viewBox="0 0 9 16">
<path d="M8.49219 0.392857C8.25112 0.357142 7.42076 0.285713 6.45647 0.285713C4.43862 0.285713 3.05469 1.51786 3.05469 3.77678V5.72321H0.777902V8.36607H3.05469V15.1429H5.78683V8.36607H8.05469L8.4029 5.72321H5.78683V4.03571C5.78683 3.27678 5.99219 2.75 7.0904 2.75H8.49219V0.392857Z" />
</symbol>
<symbol id="twitter"  viewBox="0 0 15 12">
<path d="M14.5346 1.92857C14.0167 2.15178 13.4542 2.3125 12.8739 2.375C13.4721 2.01786 13.9275 1.45536 14.1417 0.785714C13.5882 1.11607 12.9632 1.35714 12.3114 1.48214C11.7846 0.919642 11.0346 0.571428 10.2042 0.571428C8.60603 0.571428 7.32031 1.86607 7.32031 3.45536C7.32031 3.67857 7.3471 3.90178 7.39174 4.11607C4.99888 3.99107 2.86496 2.84821 1.44531 1.09821C1.19531 1.52678 1.05246 2.01786 1.05246 2.55357C1.05246 3.55357 1.56138 4.4375 2.33817 4.95536C1.86496 4.9375 1.41853 4.80357 1.0346 4.58929C1.0346 4.59821 1.0346 4.61607 1.0346 4.625C1.0346 6.02679 2.02567 7.1875 3.3471 7.45536C3.10603 7.51786 2.8471 7.55357 2.58817 7.55357C2.40067 7.55357 2.2221 7.53571 2.04353 7.50893C2.4096 8.65179 3.4721 9.48214 4.73996 9.50893C3.74888 10.2857 2.50781 10.7411 1.1596 10.7411C0.918527 10.7411 0.695312 10.7321 0.46317 10.7054C1.73996 11.5268 3.25781 12 4.89174 12C10.1953 12 13.0971 7.60714 13.0971 3.79464C13.0971 3.66964 13.0971 3.54464 13.0882 3.41964C13.6507 3.00893 14.1417 2.5 14.5346 1.92857Z" />
</symbol>
<symbol id="youtube"  viewBox="0 0 17 12">
<path d="M6.84821 8.35714V3.86607L11.1696 6.125L6.84821 8.35714ZM8.5 0.660714C5.13393 0.660714 2.90179 0.821428 2.90179 0.821428C2.58929 0.857142 1.90179 0.857142 1.29464 1.5C1.29464 1.5 0.803571 1.98214 0.660714 3.08928C0.491071 4.38393 0.5 5.67857 0.5 5.67857V6.89286C0.5 6.89286 0.491071 8.1875 0.660714 9.48214C0.803571 10.5804 1.29464 11.0714 1.29464 11.0714C1.90179 11.7054 2.70536 11.6875 3.0625 11.75C3.0625 11.75 4.33929 11.875 8.5 11.9107C11.8661 11.9107 14.0982 11.7411 14.0982 11.7411C14.4107 11.7054 15.0982 11.7054 15.7054 11.0714C15.7054 11.0714 16.1964 10.5804 16.3393 9.48214C16.5089 8.1875 16.5 6.89286 16.5 6.89286V5.67857C16.5 5.67857 16.5089 4.38393 16.3393 3.08928C16.1964 1.98214 15.7054 1.5 15.7054 1.5C15.0982 0.857142 14.4107 0.857142 14.0982 0.821428C14.0982 0.821428 11.8661 0.660714 8.5 0.660714Z" />
</symbol>
</svg>

